<?xml version="1.0" standalone="no"?>
<!DOCTYPE svg PUBLIC "-//W3C//DTD SVG 20010904//EN"
 "http://www.w3.org/TR/2001/REC-SVG-20010904/DTD/svg10.dtd">
<svg version="1.0" xmlns="http://www.w3.org/2000/svg"
 width="986.000000pt" height="986.000000pt" viewBox="0 0 986.000000 986.000000"
 preserveAspectRatio="xMidYMid meet">
<metadata>
Created by potrace 1.14, written by Peter Selinger 2001-2017
</metadata>
<g transform="translate(0.000000,986.000000) scale(0.100000,-0.100000)"
fill="#000000" stroke="none">
<path d="M8669 9840 c-31 -17 -48 -43 -136 -217 -152 -299 -476 -985 -1138
-2410 l-350 -753 -395 1 c-217 1 -408 4 -423 8 -27 6 -14 18 224 221 444 378
475 409 486 488 3 24 0 49 -10 68 -55 106 -1291 1573 -1393 1653 -19 15 -41
21 -74 21 -44 0 -56 -6 -140 -71 -153 -117 -319 -253 -712 -582 -205 -172
-379 -316 -385 -320 -7 -4 -162 44 -345 107 -347 119 -591 199 -644 210 -53
12 -98 -15 -133 -76 -59 -102 -162 -383 -469 -1283 l-147 -430 -245 -3 -245
-2 -149 597 c-199 797 -288 1139 -333 1275 -56 167 19 151 -754 156 l-637 4
-41 -52 c-48 -60 -55 -83 -49 -150 4 -40 13 -59 44 -94 l39 -44 435 -2 c239
-2 484 -5 545 -9 l109 -6 83 -325 c142 -552 1318 -5247 1393 -5560 98 -407
142 -608 138 -640 -2 -20 -27 -49 -93 -107 -166 -146 -254 -282 -296 -458 -30
-129 -24 -323 16 -445 118 -366 392 -583 765 -607 245 -15 459 68 641 247 110
109 169 201 215 334 l29 86 1406 0 c773 0 1467 -3 1541 -6 l135 -7 18 -56 c76
-247 268 -453 505 -540 154 -57 370 -73 512 -38 380 93 648 436 648 826 0 139
-26 247 -90 376 -99 201 -255 345 -465 430 -62 25 -86 29 -206 33 -250 8 -406
-23 -531 -108 -183 -123 -322 -302 -374 -483 l-18 -64 -1535 -7 c-844 -4
-1537 -3 -1541 1 -4 4 -19 42 -34 83 -93 257 -260 439 -488 529 -88 35 -161
50 -292 59 l-100 7 -38 150 c-20 83 -38 155 -38 162 0 9 574 13 2573 16 1900
3 2594 7 2655 15 107 16 149 33 163 69 53 136 1006 3990 1034 4179 7 48 -26
112 -68 132 -30 15 -354 30 -672 33 -99 1 -192 4 -206 8 l-26 6 229 490 c665
1421 943 2026 1006 2192 40 103 41 138 3 190 -25 35 -59 55 -252 151 -378 186
-777 362 -820 362 -13 -1 -40 -9 -60 -20z m-3195 -1387 c120 -134 661 -780
880 -1052 l148 -183 -34 -35 c-44 -46 -233 -210 -568 -492 l-274 -231 -307 0
-307 0 156 468 c165 498 174 537 136 589 -30 41 -143 94 -369 173 -247 87
-305 110 -305 121 0 15 789 679 807 679 2 0 18 -17 37 -37z m3656 -2359 c5 -5
-188 -793 -453 -1854 l-462 -1845 -110 -6 c-60 -4 -1229 -7 -2597 -8 l-2487
-1 -15 52 c-9 29 -217 862 -464 1851 -315 1257 -446 1800 -438 1805 6 4 184
10 396 13 595 10 6620 3 6630 -7z"/>
</g>
</svg>
